<svg width="336" height="55" viewBox="0 0 336 55" fill="none" xmlns="http://www.w3.org/2000/svg">
<path d="M40.28 45.432C40.52 45.432 40.724 45.516 40.892 45.684L42.332 47.232C41.276 48.36 40.124 49.38 38.876 50.292C37.652 51.18 36.296 51.948 34.808 52.596C33.344 53.22 31.724 53.7 29.948 54.036C28.196 54.396 26.264 54.576 24.152 54.576C20.624 54.576 17.384 53.964 14.432 52.74C11.504 51.492 8.984 49.74 6.872 47.484C4.76 45.204 3.116 42.456 1.94 39.24C0.788 36.024 0.212 32.448 0.212 28.512C0.212 24.648 0.812 21.12 2.012 17.928C3.212 14.736 4.892 12 7.052 9.72C9.212 7.416 11.804 5.64 14.828 4.392C17.852 3.12 21.188 2.484 24.836 2.484C28.316 2.484 31.4 3.024 34.088 4.104C36.776 5.184 39.224 6.708 41.432 8.676L40.316 10.296C40.124 10.584 39.824 10.728 39.416 10.728C39.128 10.728 38.66 10.464 38.012 9.936C37.364 9.408 36.464 8.832 35.312 8.208C34.16 7.56 32.72 6.972 30.992 6.444C29.288 5.916 27.236 5.652 24.836 5.652C21.764 5.652 18.944 6.18 16.376 7.236C13.832 8.292 11.636 9.804 9.788 11.772C7.964 13.74 6.536 16.14 5.504 18.972C4.472 21.804 3.956 24.984 3.956 28.512C3.956 32.112 4.472 35.328 5.504 38.16C6.56 40.992 8 43.392 9.824 45.36C11.648 47.304 13.796 48.804 16.268 49.86C18.764 50.892 21.452 51.408 24.332 51.408C26.156 51.408 27.776 51.288 29.192 51.048C30.632 50.808 31.952 50.448 33.152 49.968C34.352 49.488 35.468 48.9 36.5 48.204C37.532 47.508 38.552 46.692 39.56 45.756C39.68 45.66 39.8 45.588 39.92 45.54C40.04 45.468 40.16 45.432 40.28 45.432ZM54.3763 18.18V54H50.9563V18.18H54.3763ZM55.8523 5.832C55.8523 6.264 55.7563 6.672 55.5643 7.056C55.3963 7.416 55.1683 7.74 54.8803 8.028C54.5923 8.316 54.2563 8.544 53.8723 8.712C53.4883 8.88 53.0803 8.964 52.6483 8.964C52.2163 8.964 51.8083 8.88 51.4243 8.712C51.0403 8.544 50.7043 8.316 50.4163 8.028C50.1283 7.74 49.9003 7.416 49.7323 7.056C49.5643 6.672 49.4803 6.264 49.4803 5.832C49.4803 5.4 49.5643 4.992 49.7323 4.608C49.9003 4.2 50.1283 3.852 50.4163 3.564C50.7043 3.276 51.0403 3.048 51.4243 2.88C51.8083 2.712 52.2163 2.628 52.6483 2.628C53.0803 2.628 53.4883 2.712 53.8723 2.88C54.2563 3.048 54.5923 3.276 54.8803 3.564C55.1683 3.852 55.3963 4.2 55.5643 4.608C55.7563 4.992 55.8523 5.4 55.8523 5.832ZM69.8675 24.444C71.5235 22.38 73.4315 20.724 75.5915 19.476C77.7755 18.228 80.1995 17.604 82.8635 17.604C84.8315 17.604 86.5595 17.916 88.0475 18.54C89.5595 19.164 90.8075 20.064 91.7915 21.24C92.7755 22.416 93.5195 23.832 94.0235 25.488C94.5275 27.144 94.7795 29.016 94.7795 31.104V54H91.3235V31.104C91.3235 27.744 90.5555 25.116 89.0195 23.22C87.4835 21.3 85.1435 20.34 81.9995 20.34C79.6715 20.34 77.4875 20.94 75.4475 22.14C73.4315 23.316 71.6315 24.96 70.0475 27.072V54H66.5915V18.18H68.4995C69.0995 18.18 69.4475 18.48 69.5435 19.08L69.8675 24.444ZM131.305 32.472C131.305 30.552 131.029 28.836 130.477 27.324C129.949 25.788 129.193 24.492 128.209 23.436C127.225 22.38 126.049 21.576 124.681 21.024C123.337 20.448 121.849 20.16 120.217 20.16C118.369 20.16 116.713 20.448 115.249 21.024C113.785 21.6 112.513 22.428 111.433 23.508C110.377 24.588 109.525 25.884 108.877 27.396C108.229 28.908 107.797 30.6 107.581 32.472H131.305ZM107.401 34.668V35.352C107.401 38.04 107.713 40.404 108.337 42.444C108.961 44.484 109.849 46.2 111.001 47.592C112.153 48.96 113.545 49.992 115.177 50.688C116.809 51.384 118.633 51.732 120.649 51.732C122.449 51.732 124.009 51.54 125.329 51.156C126.649 50.748 127.753 50.304 128.641 49.824C129.553 49.32 130.273 48.876 130.801 48.492C131.329 48.084 131.713 47.88 131.953 47.88C132.265 47.88 132.505 48 132.673 48.24L133.609 49.392C133.033 50.112 132.265 50.784 131.305 51.408C130.369 52.032 129.313 52.572 128.137 53.028C126.985 53.46 125.737 53.808 124.393 54.072C123.073 54.336 121.741 54.468 120.397 54.468C117.949 54.468 115.717 54.048 113.701 53.208C111.685 52.344 109.957 51.096 108.517 49.464C107.077 47.832 105.961 45.84 105.169 43.488C104.401 41.112 104.017 38.4 104.017 35.352C104.017 32.784 104.377 30.42 105.097 28.26C105.841 26.076 106.897 24.204 108.265 22.644C109.657 21.06 111.349 19.824 113.341 18.936C115.357 18.048 117.637 17.604 120.181 17.604C122.197 17.604 124.069 17.952 125.797 18.648C127.525 19.344 129.025 20.364 130.297 21.708C131.569 23.028 132.565 24.66 133.285 26.604C134.029 28.548 134.401 30.78 134.401 33.3C134.401 33.828 134.329 34.188 134.185 34.38C134.041 34.572 133.801 34.668 133.465 34.668H107.401ZM171.336 11.412C171.048 11.916 170.736 12.288 170.4 12.528C170.088 12.744 169.692 12.852 169.212 12.852C168.708 12.852 168.156 12.672 167.556 12.312C166.98 11.928 166.284 11.508 165.468 11.052C164.652 10.596 163.692 10.188 162.588 9.828C161.508 9.444 160.224 9.252 158.736 9.252C157.392 9.252 156.216 9.42 155.208 9.756C154.2 10.068 153.348 10.512 152.652 11.088C151.98 11.664 151.476 12.36 151.14 13.176C150.804 13.968 150.636 14.844 150.636 15.804C150.636 17.028 150.972 18.048 151.644 18.864C152.34 19.68 153.252 20.376 154.38 20.952C155.508 21.528 156.792 22.044 158.232 22.5C159.672 22.956 161.148 23.448 162.66 23.976C164.172 24.48 165.648 25.08 167.088 25.776C168.528 26.448 169.812 27.312 170.94 28.368C172.068 29.4 172.968 30.672 173.64 32.184C174.336 33.696 174.684 35.532 174.684 37.692C174.684 40.044 174.276 42.252 173.46 44.316C172.668 46.356 171.492 48.144 169.932 49.68C168.396 51.192 166.512 52.392 164.28 53.28C162.048 54.144 159.492 54.576 156.612 54.576C154.956 54.576 153.324 54.408 151.716 54.072C150.108 53.76 148.56 53.304 147.072 52.704C145.608 52.104 144.228 51.384 142.932 50.544C141.636 49.704 140.484 48.768 139.476 47.736L142.32 43.092C142.56 42.756 142.872 42.48 143.256 42.264C143.64 42.024 144.048 41.904 144.48 41.904C145.08 41.904 145.728 42.156 146.424 42.66C147.12 43.14 147.948 43.68 148.908 44.28C149.868 44.88 150.984 45.432 152.256 45.936C153.552 46.416 155.1 46.656 156.9 46.656C159.66 46.656 161.796 46.008 163.308 44.712C164.82 43.392 165.576 41.508 165.576 39.06C165.576 37.692 165.228 36.576 164.532 35.712C163.86 34.848 162.96 34.128 161.832 33.552C160.704 32.952 159.42 32.448 157.98 32.04C156.54 31.632 155.076 31.188 153.588 30.708C152.1 30.228 150.636 29.652 149.196 28.98C147.756 28.308 146.472 27.432 145.344 26.352C144.216 25.272 143.304 23.928 142.608 22.32C141.936 20.688 141.6 18.684 141.6 16.308C141.6 14.412 141.972 12.564 142.716 10.764C143.484 8.964 144.588 7.368 146.028 5.976C147.468 4.584 149.244 3.468 151.356 2.628C153.468 1.788 155.892 1.368 158.628 1.368C161.7 1.368 164.532 1.848 167.124 2.808C169.716 3.768 171.924 5.112 173.748 6.84L171.336 11.412ZM192.423 54.576C189.207 54.576 186.735 53.676 185.007 51.876C183.303 50.052 182.451 47.544 182.451 44.352V23.724H178.671C178.191 23.724 177.783 23.568 177.447 23.256C177.111 22.944 176.943 22.476 176.943 21.852V18.324L182.883 17.352L184.755 7.272C184.875 6.792 185.103 6.42 185.439 6.156C185.775 5.892 186.207 5.76 186.735 5.76H191.343V17.388H201.207V23.724H191.343V43.74C191.343 44.892 191.619 45.792 192.171 46.44C192.747 47.088 193.527 47.412 194.511 47.412C195.063 47.412 195.519 47.352 195.879 47.232C196.263 47.088 196.587 46.944 196.851 46.8C197.139 46.656 197.391 46.524 197.607 46.404C197.823 46.26 198.039 46.188 198.255 46.188C198.519 46.188 198.735 46.26 198.903 46.404C199.071 46.524 199.251 46.716 199.443 46.98L202.107 51.3C200.811 52.38 199.323 53.196 197.643 53.748C195.963 54.3 194.223 54.576 192.423 54.576ZM215.288 23.472C216.44 21.264 217.808 19.536 219.392 18.288C220.976 17.016 222.848 16.38 225.008 16.38C226.712 16.38 228.08 16.752 229.112 17.496L228.536 24.156C228.416 24.588 228.236 24.9 227.996 25.092C227.78 25.26 227.48 25.344 227.096 25.344C226.736 25.344 226.196 25.284 225.476 25.164C224.78 25.044 224.096 24.984 223.424 24.984C222.44 24.984 221.564 25.128 220.796 25.416C220.028 25.704 219.332 26.124 218.708 26.676C218.108 27.204 217.568 27.852 217.088 28.62C216.632 29.388 216.2 30.264 215.792 31.248V54H206.9V17.064H212.12C213.032 17.064 213.668 17.232 214.028 17.568C214.388 17.88 214.628 18.456 214.748 19.296L215.288 23.472ZM256.501 31.284C256.501 30.132 256.333 29.052 255.997 28.044C255.685 27.012 255.205 26.112 254.557 25.344C253.909 24.576 253.081 23.976 252.073 23.544C251.089 23.088 249.937 22.86 248.617 22.86C246.049 22.86 244.021 23.592 242.533 25.056C241.069 26.52 240.133 28.596 239.725 31.284H256.501ZM239.545 36.648C239.689 38.544 240.025 40.188 240.553 41.58C241.081 42.948 241.777 44.088 242.641 45C243.505 45.888 244.525 46.56 245.701 47.016C246.901 47.448 248.221 47.664 249.661 47.664C251.101 47.664 252.337 47.496 253.369 47.16C254.425 46.824 255.337 46.452 256.105 46.044C256.897 45.636 257.581 45.264 258.157 44.928C258.757 44.592 259.333 44.424 259.885 44.424C260.629 44.424 261.181 44.7 261.541 45.252L264.097 48.492C263.113 49.644 262.009 50.616 260.785 51.408C259.561 52.176 258.277 52.8 256.933 53.28C255.613 53.736 254.257 54.06 252.865 54.252C251.497 54.444 250.165 54.54 248.869 54.54C246.301 54.54 243.913 54.12 241.705 53.28C239.497 52.416 237.577 51.156 235.945 49.5C234.313 47.82 233.029 45.756 232.093 43.308C231.157 40.836 230.688 37.98 230.688 34.74C230.688 32.22 231.097 29.856 231.913 27.648C232.729 25.416 233.893 23.484 235.405 21.852C236.941 20.196 238.801 18.888 240.985 17.928C243.193 16.968 245.677 16.488 248.437 16.488C250.765 16.488 252.913 16.86 254.881 17.604C256.849 18.348 258.541 19.44 259.957 20.88C261.373 22.296 262.477 24.048 263.269 26.136C264.085 28.2 264.492 30.564 264.492 33.228C264.492 34.572 264.349 35.484 264.061 35.964C263.773 36.42 263.221 36.648 262.405 36.648H239.545ZM280.165 0.503998V54H271.273V0.503998H280.165ZM298.025 0.503998V54H289.133V0.503998H298.025ZM326.396 38.232C323.828 38.352 321.668 38.58 319.916 38.916C318.164 39.228 316.76 39.636 315.704 40.14C314.648 40.644 313.892 41.232 313.436 41.904C312.98 42.576 312.752 43.308 312.752 44.1C312.752 45.66 313.208 46.776 314.12 47.448C315.056 48.12 316.268 48.456 317.756 48.456C319.58 48.456 321.152 48.132 322.472 47.484C323.816 46.812 325.124 45.804 326.396 44.46V38.232ZM306.02 22.212C310.268 18.324 315.38 16.38 321.356 16.38C323.516 16.38 325.448 16.74 327.152 17.46C328.856 18.156 330.296 19.14 331.472 20.412C332.648 21.66 333.536 23.16 334.136 24.912C334.76 26.664 335.072 28.584 335.072 30.672V54H331.04C330.2 54 329.552 53.88 329.096 53.64C328.64 53.376 328.28 52.86 328.016 52.092L327.224 49.428C326.288 50.268 325.376 51.012 324.488 51.66C323.6 52.284 322.676 52.812 321.716 53.244C320.756 53.676 319.724 54 318.62 54.216C317.54 54.456 316.34 54.576 315.02 54.576C313.46 54.576 312.02 54.372 310.7 53.964C309.38 53.532 308.24 52.896 307.28 52.056C306.32 51.216 305.576 50.172 305.048 48.924C304.52 47.676 304.256 46.224 304.256 44.568C304.256 43.632 304.412 42.708 304.724 41.796C305.036 40.86 305.54 39.972 306.236 39.132C306.956 38.292 307.88 37.5 309.008 36.756C310.136 36.012 311.516 35.364 313.148 34.812C314.804 34.26 316.724 33.816 318.908 33.48C321.092 33.12 323.588 32.904 326.396 32.832V30.672C326.396 28.2 325.868 26.376 324.812 25.2C323.756 24 322.232 23.4 320.24 23.4C318.8 23.4 317.6 23.568 316.64 23.904C315.704 24.24 314.876 24.624 314.156 25.056C313.436 25.464 312.776 25.836 312.176 26.172C311.6 26.508 310.952 26.676 310.232 26.676C309.608 26.676 309.08 26.52 308.648 26.208C308.216 25.872 307.868 25.488 307.604 25.056L306.02 22.212Z" fill="white"/>
</svg>
